# AST/ASF file generated using VICON BodyLanguage
# -----------------------------------------------
:version 1.10
:name VICON
:units
  mass 1.0
  length 0.45
  angle deg
:documentation
   .ast/.asf automatically generated from VICON data using
   VICON BodyBuilder and BodyLanguage model FoxedUp or BRILLIANT.MOD
:root
   order TX TY TZ RX RY RZ
   axis XYZ
   position 0 0 0  
   orientation 0 0 0 
:bonedata
  begin
     id 1 
     name lhipjoint
     direction 0.643824 -0.71708 0.266994 
     length 2.52133 
     axis 0 0 0  XYZ
  end
  begin
     id 2 
     name lfemur
     direction 0.34202 -0.939693 0  
     length 7.51824  
     axis 0 0 20  XYZ
    dof rx ry rz
    limits (-160.0 20.0)
           (-70.0 70.0)
           (-60.0 70.0)
  end
  begin
     id 3 
     name ltibia
     direction 0.34202 -0.939693 0   
     length 7.3685   
     axis 0 0 20   XYZ
    dof rx
    limits (-10.0 170.0)
  end
  begin
     id 4 
     name lfoot
     direction 0.105419 -0.289636 0.951314   
     length 2.20972   
     axis -90 7.62852e-016 20   XYZ
    dof rx rz
    limits (-45.0 90.0)
           (-70.0 20.0)
  end
  begin
     id 5 
     name ltoes
     direction 1.53549e-011 -4.21833e-011 1   
     length 1.10139   
     axis -90 7.62852e-016 20   XYZ
    dof rx
    limits (-90.0 20.0)
  end
  begin
     id 6 
     name rhipjoint
     direction -0.608823 -0.743445 0.276811   
     length 2.43192  
     axis 0 0 0  XYZ 
  end
  begin
     id 7 
     name rfemur
     direction -0.34202 -0.939693 0   
     length 7.69715   
     axis 0 0 -20   XYZ
    dof rx ry rz
    limits (-160.0 20.0)
           (-70.0 70.0)
           (-70.0 60.0)
  end
  begin
     id 8 
     name rtibia
     direction -0.34202 -0.939693 0   
     length 7.44924   
     axis 0 0 -20   XYZ
    dof rx
    limits (-10.0 170.0)
 end
 begin
     id 9 
     name rfoot
     direction -0.103614 -0.284677 0.953007   
     length 2.22623  
     axis -90 -7.62852e-016 -20   XYZ
    dof rx rz
    limits (-45.0 90.0)
           (-20.0 70.0)
  end
  begin
     id 10 
     name rtoes
     direction -1.53537e-011 -4.22026e-011 1   
     length 1.11   
     axis -90 -7.62852e-016 -20   XYZ
    dof rx
    limits (-90.0 20.0)
  end
  begin
     id 11 
     name lowerback
     direction -0.0101212 0.99662 -0.0815298   
     length 2.08277   
     axis 0 0 0   XYZ
    dof rx ry rz
    limits (-20.0 45.0)
           (-30.0 30.0)
           (-30.0 30.0)
  end
  begin
     id 12 
     name upperback
     direction 0.024314 0.999591 -0.0150645   
     length 2.08524   
     axis 0 0 0   XYZ
    dof rx ry rz
    limits (-20.0 45.0)
           (-30.0 30.0)
           (-30.0 30.0)
  end
  begin
     id 13 
     name thorax
     direction 0.0285959 0.999323 0.0231357   
     length 2.09645   
     axis 0 0 0   XYZ
    dof rx ry rz
    limits (-20.0 45.0)
           (-30.0 30.0)
           (-30.0 30.0)
  end
  begin
     id 14 
     name lowerneck
     direction -0.065512 0.979301 0.191515   
     length 1.63798   
     axis 0 0 0   XYZ
    dof rx ry rz
    limits (-20.0 45.0)
           (-30.0 30.0)
           (-30.0 30.0)
  end
  begin
     id 15 
     name upperneck
     direction 0.0498479 0.98191 -0.182667   
     length 1.68731   
     axis 0 0 0   XYZ
    dof rx ry rz
    limits (-20.0 45.0)
           (-30.0 30.0)
           (-30.0 30.0)
  end
  begin
     id 16
     name head
     direction 0.0230358 0.996257 -0.0833175  
     length 1.69785  
     axis 0 0 0   XYZ
    dof rx ry rz
    limits (-20.0 45.0)
           (-30.0 30.0)
           (-30.0 30.0)
  end
  begin
     id 17 
     name lclavicle
     direction 0.967963 0.201165 -0.150269  
     length 3.63976  
     axis 0 0 0   XYZ
    dof ry rz
    limits (-20.0 10.0)
           (0.0 20.0)
  end
  begin
     id 18 
     name lhumerus
     direction 1 -4.48954e-011 -2.92837e-028   
     length 5.32462   
     axis 180 -30 -90   XYZ
    dof rx ry rz
    limits (-60.0 90.0)
           (-90.0 90.0)
           (-90.0 90.0)
  end
  begin
     id 19
     name lradius
     direction 1 -4.48958e-011 -6.39511e-027   
     length 3.48402   
     axis 180 -30 -90   XYZ
    dof rx
    limits (-10.0 170.0)
  end
  begin
     id 20
     name lwrist
     direction 1 -4.48975e-011 -1.1413e-026   
     length 1.74201   
     axis 6.88575e-015 90 90   XYZ
    dof ry
    limits (-180.0 0.0)
 end
  begin
     id 21 
     name lhand
     direction 1 -4.48899e-011 -2.28192e-026   
     length 0.572476   
     axis 1.45643e-014 90 90   XYZ
    dof rx rz
    limits (-90.0 90.0)
           (-45.0 45.0)
  end
  begin
     id 22 
     name lfingers
     direction 1 -4.49155e-011 -4.5684e-026   
     length 0.461545   
     axis 2.91283e-014 90 90   XYZ
    dof rx
    limits (0.0 90.0)
  end
  begin
     id 23
     name lthumb
     direction 0.707107 -6.34943e-011 0.707107   
     length 0.662688   
     axis -90 45 -2.25915e-014   XYZ
    dof rx rz
    limits (-45.0 45.0)
           (-45.0 45.0)
  end
  begin
     id 24 
     name rclavicle
     direction -0.964103 0.264019 -0.0282629   
     length 3.54491  
     axis 0 0 0   XYZ 
    dof ry rz
    limits (-10.0 20.0)
           (-20.0 0.0)
  end
  begin
     id 25 
     name rhumerus
     direction -1 -4.48964e-011 -2.45032e-027  
     length 5.33589   
     axis 180 30 90   XYZ
    dof rx ry rz
    limits (-90.0 60.0)
           (-90.0 90.0)
           (-90.0 90.0)
  end
  begin
     id 26 
     name rradius
     direction -1 -4.48987e-011 -1.55093e-027   
     length 3.64134   
     axis 180 30 90   XYZ
    dof rx
    limits (-10.0 170.0)
  end
  begin
     id 27 
     name rwrist
     direction -1 -4.4897e-011 -1.14128e-026   
     length 1.82067   
     axis 6.88575e-015 -90 -90   XYZ
    dof ry
    limits (-180.0 0.0)
  end
  begin
     id 28
     name rhand
     direction -1 -4.49021e-011 -2.28301e-026   
     length 0.734811   
     axis 1.45643e-014 -90 -90   XYZ
    dof rx rz
    limits (-90.0 90.0)
           (-45.0 45.0)
  end
  begin
     id 29
     name rfingers
     direction -1 -4.48862e-011 -4.56319e-026   
     length 0.592424   
     axis 2.91283e-014 -90 -90   XYZ
    dof rx
    limits (0.0 90.0)
  end
  begin
     id 30
     name rthumb
     direction -0.707107 -6.34978e-011 0.707107   
     length 0.850605   
     axis -90 -45 2.25915e-014   XYZ
    dof rx rz
    limits (-45.0 45.0)
           (-45.0 45.0)
  end
:hierarchy
  begin
    root lhipjoint rhipjoint lowerback
    lhipjoint lfemur
    lfemur ltibia
    ltibia lfoot
    lfoot ltoes
    rhipjoint rfemur
    rfemur rtibia
    rtibia rfoot
    rfoot rtoes
    lowerback upperback
    upperback thorax
    thorax lowerneck lclavicle rclavicle
    lowerneck upperneck
    upperneck head
    lclavicle lhumerus
    lhumerus lradius
    lradius lwrist
    lwrist lhand lthumb
    lhand lfingers
    rclavicle rhumerus
    rhumerus rradius
    rradius rwrist
    rwrist rhand rthumb
    rhand rfingers
  end

#!OML:ASF F:\VICON\USERDATA\INSTALL\rory3\rory3.ASF
:FULLY-SPECIFIED
:DEGREES
1
root -4.93848 17.9309 -1.3609 11.0346 8.1643 2.32303
lowerback 2.97835 -2.07333 -1.62663
upperback 1.15101 -2.78143 3.89521
thorax -0.212934 -1.40799 5.01396
lowerneck -13.1559 -8.23294 -13.7593
upperneck 26.1583 -9.07455 2.98141
head 11.5366 -5.09834 2.08028
rclavicle -8.34896e-015 4.77083e-015
rhumerus -20.0839 2.72237 -77.4069
rradius 36.7303
rwrist 7.77382
rhand -19.1972 -2.36351
rfingers 7.12502
rthumb 7.11484 -32.2239
lclavicle -8.34896e-015 4.77083e-015
lhumerus -27.7717 -3.64126 89.8796
lradius 41.5782
lwrist -3.57851
lhand -0.800237 33.762
lfingers 7.12502
lthumb 24.8237 62.1707
rfemur -19.8176 -0.122736 17.5546
rtibia 32.0598
rfoot -22.6346 -9.1183
rtoes 5.52233
lfemur -15.6518 -3.96729 -18.8134
ltibia 21.0106
lfoot -10.6408 10.5875
ltoes -20.7633
2
root -4.94226 17.9322 -1.37007 11.161 8.3739 2.45159
lowerback 3.04908 -2.01373 -1.62429
upperback 1.15339 -2.70148 3.86407
thorax -0.259665 -1.36683 4.98121
lowerneck -13.4772 -7.96428 -13.59
upperneck 26.8358 -8.62443 2.73998
head 11.799 -4.91664 2.02249
rclavicle 2.06736e-014 4.77083e-015
rhumerus -19.8768 2.61814 -77.3191
rradius 36.8291
rwrist 7.91516
rhand -19.6615 -2.16791
rfingers 7.12502
rthumb 6.66658 -32.043
lclavicle 2.06736e-014 4.77083e-015
lhumerus -27.6009 -3.99978 90.0061
lradius 41.6619
lwrist -3.48776
lhand -0.823206 33.7398
lfingers 7.12502
lthumb 24.8017 62.1515
rfemur -19.9794 -0.270167 17.4433
rtibia 32.1478
rfoot -22.6795 -9.15882
rtoes 5.53628
lfemur -15.7999 -3.99409 -18.9159
ltibia 20.9247
lfoot -10.5421 10.4435
ltoes -20.876
3
root -4.94703 17.9308 -1.37845 11.2477 8.56361 2.42351
lowerback 3.14394 -1.95576 -1.53884
upperback 1.11983 -2.61978 3.90295
thorax -0.357379 -1.32335 4.9761
lowerneck -13.5521 -7.67621 -13.467
upperneck 27.316 -8.17152 2.51734
head 11.943 -4.73705 1.98938
rclavicle 5.96354e-015 -2.8625e-014
rhumerus -19.833 2.75188 -77.214
rradius 37.0467
rwrist 7.87921
rhand -19.2973 -2.54391
rfingers 7.12502
rthumb 7.01818 -32.4076
lclavicle 5.96354e-015 -2.8625e-014
lhumerus -27.6052 -4.28179 90.1713
lradius 41.8398
lwrist -3.46921
lhand -1.02518 33.9543
lfingers 7.12502
lthumb 24.6081 62.3925
rfemur -20.0875 -0.214323 17.5012
rtibia 32.1644
rfoot -22.7919 -9.30716
rtoes 5.66994
lfemur -16.0002 -4.00558 -18.8391
ltibia 20.9338
lfoot -10.4543 10.308
ltoes -21.1269
4
root -4.9507 17.9307 -1.38441 11.3553 8.74642 2.44784
lowerback 3.20805 -1.93467 -1.52158
upperback 1.10452 -2.58978 3.95671
thorax -0.410129 -1.30719 5.02474
lowerneck -13.7559 -7.4025 -13.3604
upperneck 27.9005 -7.7011 2.25284
head 12.156 -4.55841 1.94076
rclavicle 8.34896e-015 1.11319e-014
rhumerus -19.68 3.09265 -77.106
rradius 37.2346
rwrist 7.67443
rhand -18.9744 -3.0472
rfingers 7.12502
rthumb 7.32986 -32.9002
lclavicle 8.34896e-015 1.11319e-014
lhumerus -27.5542 -4.38372 90.3226
lradius 41.9763
lwrist -3.46452
lhand -1.18341 33.9836
lfingers 7.12502
lthumb 24.4564 62.4424
rfemur -20.2208 -0.298721 17.5131
rtibia 32.1698
rfoot -22.7828 -9.39921
rtoes 5.53465
lfemur -16.1739 -4.0923 -18.8165
ltibia 20.9634
lfoot -10.4135 10.2149
ltoes -21.157
5
root -4.95181 17.9307 -1.38559 11.4868 8.88131 2.55775
lowerback 3.17415 -1.85863 -1.46531
upperback 1.13946 -2.48787 3.88392
thorax -0.371074 -1.25676 4.91166
lowerneck -13.9802 -7.22442 -13.209
upperneck 28.4742 -7.40171 2.08353
head 12.3895 -4.44003 1.89255
rclavicle -1.31198e-014 -3.81667e-014
rhumerus -19.5409 3.16219 -77.0572
rradius 37.4836
rwrist 7.49353
rhand -19.0379 -3.21495
rfingers 7.12502
rthumb 7.26857 -33.0701
lclavicle -1.31198e-014 -3.81667e-014
lhumerus -27.4544 -4.79425 90.3968
lradius 42.1656
lwrist -3.37732
lhand -1.28343 33.7378
lfingers 7.12502
lthumb 24.3605 62.2094
rfemur -20.3481 -0.500352 17.412
rtibia 32.1402
rfoot -22.64 -9.37529
rtoes 5.35937
lfemur -16.3533 -4.07998 -18.9165
ltibia 21.0429
lfoot -10.4195 10.0562
ltoes -21.024
